<svg width="180" height="81" viewBox="0 0 180 81" fill="none" xmlns="http://www.w3.org/2000/svg">
<path d="M23.3381 80.9997C19.7348 80.9997 16.5415 80.2533 13.7584 78.7607C11.059 77.3449 8.81572 75.211 7.28307 72.601C5.748 69.9898 4.98047 67.0148 4.98047 63.6761V31.1335H11.5901V63.5436C11.5901 65.7846 12.0904 67.7715 13.0909 69.5045C14.0621 71.2111 15.4989 72.6147 17.238 73.5558C18.9955 74.5223 21.0316 75.0056 23.346 75.0056C25.6605 75.0056 27.6965 74.5223 29.454 73.5558C31.1927 72.6141 32.6293 71.2106 33.6011 69.5045C34.6016 67.7702 35.1026 65.7833 35.1039 63.5436V31.1335H41.7115V63.6761C41.7115 67.0135 40.944 69.9885 39.4089 72.601C37.8839 75.2053 35.6531 77.3384 32.9672 78.7607C30.1959 80.2533 26.9862 80.9997 23.3381 80.9997Z" fill="white"/>
<path d="M56.7139 53.649C55.3656 53.6566 54.0302 53.3914 52.79 52.8695C51.6072 52.378 50.5417 51.6479 49.6619 50.726C48.7874 49.803 48.1258 48.7041 47.7227 47.5048L51.1469 46.0511C51.6294 47.2428 52.4417 48.2766 53.491 49.0345C54.4976 49.7505 55.7101 50.1295 56.9508 50.116C57.5939 50.1309 58.2332 50.0148 58.8289 49.775C59.3185 49.5802 59.7452 49.2575 60.0631 48.8416C60.3595 48.4253 60.5119 47.9257 60.4976 47.4172C60.5198 46.8273 60.3071 46.2524 59.9051 45.8154C59.5102 45.3983 58.9243 45.0619 58.1476 44.8059L53.8465 43.4419C52.1021 42.908 50.7856 42.1123 49.8969 41.0548C49.0034 39.9936 48.528 38.6499 48.558 37.2705C48.5349 36.0794 48.8718 34.9085 49.5256 33.9071C50.1845 32.9236 51.1056 32.1387 52.1877 31.6389C53.4063 31.0779 54.7395 30.8012 56.0839 30.8302C57.3518 30.8156 58.6097 31.0528 59.7827 31.5278C60.8718 31.97 61.8587 32.6256 62.6837 33.455C63.4956 34.2783 64.1168 35.2656 64.5044 36.3488L61.1058 37.8317C60.7279 36.8019 60.0386 35.9115 59.131 35.2809C58.2377 34.6677 57.1721 34.346 56.0839 34.3612C55.4647 34.3488 54.8497 34.465 54.279 34.7022C53.7898 34.9047 53.3683 35.239 53.0625 35.6668C52.7518 36.1227 52.5998 36.666 52.6293 37.2147C52.6589 37.7634 52.8685 38.2877 53.2264 38.7086C53.6213 39.1724 54.2395 39.5348 55.061 39.7901L59.1804 41.0665C60.9656 41.6407 62.3038 42.4318 63.1951 43.4399C64.0864 44.448 64.5327 45.6945 64.534 47.1794C64.5577 48.3703 64.2133 49.5401 63.5466 50.5331C62.8563 51.5213 61.9088 52.3076 60.8037 52.8091C59.5224 53.3908 58.124 53.678 56.7139 53.649Z" fill="white"/>
<path d="M76.8312 53.6479C75.2351 53.6782 73.6572 53.3102 72.2437 52.5781C70.9259 51.8916 69.8274 50.857 69.071 49.59C68.3146 48.323 67.9301 46.8734 67.9604 45.4032V31.178H72.0482V45.1849C72.0361 46.0473 72.2511 46.8981 72.6722 47.6539C73.0654 48.3679 73.6538 48.9587 74.3706 49.3589C75.1322 49.7582 75.9815 49.9669 76.844 49.9669C77.7064 49.9669 78.5557 49.7582 79.3174 49.3589C80.0271 48.9542 80.61 48.3643 81.0019 47.6539C81.4175 46.8984 81.6297 46.0503 81.618 45.1908V31.178H85.7059V45.4032C85.7364 46.8744 85.3518 48.3251 84.5951 49.5932C83.8384 50.8612 82.7393 51.8967 81.4206 52.584C80.006 53.3144 78.4273 53.6803 76.8312 53.6479Z" fill="white"/>
<path d="M89.76 53.2913V31.178H93.7096L102.097 42.4315H100.232L108.434 31.178H112.344V53.2913H108.218V35.7846L109.812 36.1743L101.307 47.3518H100.827L92.5326 36.1665L93.8853 35.7768V53.2835L89.76 53.2913Z" fill="white"/>
<path d="M116.613 53.2913V31.178H120.563L128.952 42.4256H127.078L135.287 31.178H139.195V53.2913H135.076V35.7846L136.669 36.1743L128.164 47.3518H127.682L119.388 36.1665L120.741 35.7768V53.2835L116.613 53.2913Z" fill="white"/>
<path d="M143.466 53.2913V31.178H158.378V34.7401H147.586V40.4068H157.786V43.9982H147.586V49.7253H158.378V53.2855L143.466 53.2913Z" fill="white"/>
<path d="M161.358 53.2921V31.1787H169.717C171.11 31.1523 172.491 31.4311 173.762 31.9952C174.894 32.5046 175.85 33.3297 176.512 34.3687C177.171 35.408 177.5 36.6791 177.5 38.1822C177.5 39.6853 177.134 40.9759 176.402 42.0542C175.679 43.125 174.647 43.9572 173.44 44.4432L178.574 53.2862H173.957L168.428 43.5819L171.103 45.1253H165.487V53.2862L161.358 53.2921ZM165.487 41.5709H169.786C170.455 41.5886 171.117 41.4405 171.712 41.1403C172.24 40.8668 172.677 40.4504 172.974 39.9399C173.271 39.3895 173.426 38.7755 173.426 38.152C173.426 37.5285 173.271 36.9145 172.974 36.3641C172.674 35.8596 172.237 35.4484 171.712 35.1774C171.116 34.878 170.454 34.73 169.786 34.7467H165.487V41.5709Z" fill="white"/>
<path d="M56.7139 80.205C55.3656 80.2136 54.0299 79.9483 52.79 79.4255C51.6068 78.9348 50.5412 78.2046 49.6619 77.282C48.7875 76.3598 48.1259 75.2615 47.7227 74.0628L51.1469 72.6091C51.6286 73.8007 52.441 74.8341 53.491 75.5906C54.497 76.308 55.7098 76.6878 56.9508 76.674C57.5939 76.6889 58.2332 76.5728 58.8289 76.333C59.319 76.1382 59.7458 75.8147 60.0631 75.3977C60.3595 74.9821 60.5119 74.4831 60.4976 73.9752C60.5197 73.3848 60.3071 72.8093 59.9051 72.3714C59.413 71.8969 58.809 71.5507 58.1476 71.364L53.8465 69.9999C52.1021 69.466 50.7856 68.6696 49.8969 67.6108C49.0034 66.5504 48.5279 65.2073 48.558 63.8285C48.5349 62.6413 48.8696 61.4741 49.5197 60.4749C50.1793 59.4916 51.1002 58.7063 52.1817 58.2047C53.4019 57.6411 54.737 57.3617 56.0839 57.3882C57.3516 57.3739 58.6092 57.6105 59.7827 58.0839C60.8715 58.5275 61.8583 59.1837 62.6837 60.013C63.496 60.836 64.1173 61.8234 64.5044 62.9068L61.1058 64.3897C60.7284 63.3596 60.0389 62.4691 59.131 61.8389C58.2377 61.2257 57.1721 60.904 56.0839 60.9192C55.4647 60.9068 54.8497 61.023 54.279 61.2602C53.7894 61.4621 53.3677 61.7965 53.0625 62.2248C52.7523 62.6805 52.6005 63.2234 52.6301 63.7717C52.6596 64.32 52.8689 64.8439 53.2264 65.2647C53.6213 65.7297 54.2329 66.0909 55.061 66.3481L59.1784 67.6186C60.9636 68.1941 62.3019 68.9853 63.1931 69.9921C64.0844 70.9989 64.5307 72.2454 64.5321 73.7316C64.5557 74.9219 64.2113 76.091 63.5447 77.0833C62.8583 78.0744 61.9133 78.8642 60.8096 79.369C59.5262 79.9503 58.1257 80.2362 56.7139 80.205Z" fill="white"/>
<path d="M78.7248 80.2057C77.1973 80.2206 75.6828 79.9282 74.2737 79.3463C72.9359 78.7907 71.7265 77.9726 70.719 76.9417C69.7052 75.8955 68.9041 74.667 68.3592 73.323C67.777 71.879 67.4859 70.3367 67.5021 68.7827C67.4863 67.225 67.7718 65.6787 68.3434 64.2267C68.8796 62.876 69.6855 61.6454 70.7131 60.608C71.7244 59.5893 72.9333 58.7821 74.2677 58.2346C75.6829 57.6581 77.2018 57.3704 78.7327 57.3889C80.2111 57.3653 81.679 57.6377 83.0476 58.1898C84.2554 58.681 85.3537 59.4013 86.2804 60.3099C87.1198 61.1252 87.7664 62.1133 88.1742 63.2037L84.505 64.9243C84.0933 63.8086 83.3492 62.8419 82.3703 62.1514C81.3697 61.4291 80.1572 61.0679 78.7327 61.0679C77.4262 61.0406 76.1385 61.3784 75.0182 62.0423C73.9466 62.6946 73.0818 63.6303 72.522 64.7431C71.9377 66.0128 71.6354 67.3911 71.6354 68.7856C71.6354 70.1801 71.9377 71.5584 72.522 72.8281C73.0785 73.9472 73.9437 74.8888 75.0182 75.5445C76.1385 76.2084 77.4262 76.5462 78.7327 76.5188C80.1572 76.5188 81.3697 76.1577 82.3703 75.4354C83.3436 74.7517 84.0871 73.7961 84.505 72.6917L88.1742 74.3831C87.7669 75.4731 87.1201 76.4607 86.2804 77.2749C85.3544 78.1847 84.2559 78.9058 83.0476 79.397C81.6771 79.9527 80.2064 80.2279 78.7248 80.2057Z" fill="white"/>
<path d="M91.4446 79.8495V57.7419H95.564V67.3858H105.096V57.7419H109.216V79.8495H105.096V70.946H95.564V79.8495H91.4446Z" fill="white"/>
<path d="M124.552 80.205C122.971 80.2204 121.402 79.9284 119.935 79.3457C118.551 78.7895 117.29 77.9728 116.222 76.941C115.154 75.9056 114.305 74.67 113.726 73.3068C113.118 71.8766 112.81 70.339 112.824 68.7879C112.81 67.2363 113.112 65.6978 113.71 64.2631C114.279 62.9017 115.124 61.6696 116.193 60.6425C117.267 59.6159 118.534 58.8046 119.921 58.2534C122.899 57.1076 126.205 57.1076 129.183 58.2534C130.57 58.8062 131.833 59.621 132.903 60.6522C133.967 61.6826 134.811 62.9131 135.384 64.2709C136.571 67.1699 136.566 70.4113 135.37 73.3068C134.79 74.6696 133.942 75.905 132.874 76.941C131.805 77.9728 130.544 78.7895 129.159 79.3457C127.695 79.9275 126.13 80.2195 124.552 80.205ZM124.552 76.526C125.584 76.5339 126.606 76.3351 127.558 75.9414C128.473 75.5644 129.303 75.0086 129.995 74.3074C130.688 73.6061 131.23 72.774 131.588 71.8609C131.974 70.8814 132.167 69.8386 132.159 68.7879C132.17 67.7375 131.976 66.6949 131.588 65.7168C131.221 64.7992 130.674 63.9621 129.979 63.2537C129.293 62.5558 128.469 62.0052 127.558 61.6363C125.625 60.8854 123.477 60.8854 121.544 61.6363C120.633 62.0052 119.809 62.5558 119.123 63.2537C118.428 63.9617 117.881 64.7989 117.516 65.7168C117.127 66.6947 116.932 67.7374 116.943 68.7879C116.934 69.8427 117.128 70.8896 117.516 71.8726C117.876 72.7931 118.423 73.6313 119.123 74.3357C119.814 75.028 120.637 75.5778 121.544 75.9531C122.497 76.3428 123.52 76.5377 124.552 76.526Z" fill="white"/>
<path d="M150.953 80.2043C149.37 80.2209 147.8 79.9288 146.332 79.3449C144.947 78.7893 143.685 77.9725 142.617 76.9403C141.549 75.9043 140.701 74.6689 140.121 73.3061C139.515 71.8753 139.209 70.3379 139.223 68.7871C139.209 67.2353 139.511 65.6966 140.111 64.2623C140.679 62.9011 141.523 61.6689 142.592 60.6417C143.669 59.6118 144.94 58.7984 146.332 58.2468C149.31 57.101 152.616 57.101 155.594 58.2468C156.984 58.7999 158.251 59.6169 159.322 60.6515C160.386 61.6823 161.23 62.9126 161.804 64.2701C162.992 67.1692 162.986 70.4111 161.789 73.3061C161.209 74.6689 160.361 75.9043 159.292 76.9403C158.224 77.9725 156.963 78.7893 155.578 79.3449C154.109 79.9294 152.537 80.2214 150.953 80.2043ZM150.953 76.5252C151.985 76.5332 153.008 76.3344 153.96 75.9406C154.875 75.564 155.702 75.0089 156.394 74.3087C157.085 73.6085 157.625 72.7776 157.983 71.866C158.371 70.883 158.565 69.8361 158.556 68.7813C158.566 67.7308 158.372 66.6881 157.983 65.7102C157.617 64.7927 157.071 63.9556 156.376 63.2471C155.69 62.5497 154.866 61.9991 153.955 61.6297C152.022 60.8789 149.872 60.8789 147.939 61.6297C147.029 61.9986 146.205 62.5493 145.52 63.2471C144.824 63.955 144.277 64.7922 143.911 65.7102C143.524 66.6905 143.332 67.7352 143.346 68.7871C143.336 69.8418 143.53 70.8887 143.917 71.8718C144.275 72.7846 144.817 73.6165 145.509 74.3177C146.201 75.0188 147.03 75.5748 147.945 75.9523C148.898 76.342 149.921 76.5369 150.953 76.5252Z" fill="white"/>
<path d="M166.289 79.8495V57.7419H170.408V76.2873H180V79.8495H166.289Z" fill="white"/>
<path d="M24.6493 0H22.2974V12.4578H24.6493V0Z" fill="#F28F3B"/>
<path d="M46.6761 20.8599H34.0513V23.1807H46.6761V20.8599Z" fill="#F28F3B"/>
<path d="M12.6248 20.8599H0V23.1807H12.6248V20.8599Z" fill="#F28F3B"/>
<path d="M9.02516 5.46682L7.36206 7.10791L16.3911 16.0175L18.0542 14.3764L9.02516 5.46682Z" fill="#F28F3B"/>
<path d="M2.85612 12.2521L1.95605 14.3962L16.4259 20.3105L17.326 18.1663L2.85612 12.2521Z" fill="#F28F3B"/>
<path d="M43.59 12.4583L28.6531 18.5635L29.5531 20.7077L44.49 14.6025L43.59 12.4583Z" fill="#F28F3B"/>
<path d="M38.0409 5.86837L29.4182 14.377L31.0813 16.018L39.704 7.50946L38.0409 5.86837Z" fill="#F28F3B"/>
<path d="M30.3582 1.1881L24.5642 15.03L26.728 15.912L32.522 2.07002L30.3582 1.1881Z" fill="#F28F3B"/>
<path d="M16.2618 1.06815L14.0889 1.9563L19.9238 15.8566L22.0967 14.9684L16.2618 1.06815Z" fill="#F28F3B"/>
<path d="M37.9949 23.1903C37.9949 15.3314 31.4405 8.86182 23.4742 8.86182C15.5079 8.86182 8.95361 15.3236 8.95361 23.1903H37.9949Z" fill="#3F43C5"/>
<path d="M35.1513 23.1891C35.1513 20.1317 33.9205 17.1994 31.7295 15.0374C29.5386 12.8755 26.567 11.6609 23.4685 11.6609C20.37 11.6609 17.3984 12.8755 15.2075 15.0374C13.0165 17.1994 11.7856 20.1317 11.7856 23.1891H35.1513Z" fill="#F28F3B"/>
<path d="M178.588 20.7048H52.01V23.1796H178.588V20.7048Z" fill="white"/>
</svg>
